<svg width="28" height="32" viewBox="0 0 28 32" fill="none" xmlns="http://www.w3.org/2000/svg">
<path d="M26 32H14C13.6464 32 13.3072 31.8595 13.0572 31.6094C12.8071 31.3594 12.6667 31.0202 12.6667 30.6666V28C12.6667 27.6463 12.8071 27.3072 13.0572 27.0571C13.3072 26.8071 13.6464 26.6666 14 26.6666H26C26.3536 26.6666 26.6928 26.8071 26.9428 27.0571C27.1929 27.3072 27.3333 27.6463 27.3333 28V30.6666C27.3333 31.0202 27.1929 31.3594 26.9428 31.6094C26.6928 31.8595 26.3536 32 26 32Z" fill="#D6B1FF"/>
<path d="M26 0H2.00001C1.64638 0 1.30724 0.140475 1.0572 0.390523C0.807147 0.640572 0.666672 0.979711 0.666672 1.33333V4C0.666672 4.35362 0.807147 4.69276 1.0572 4.94281C1.30724 5.19286 1.64638 5.33333 2.00001 5.33333H26C26.3536 5.33333 26.6928 5.19286 26.9428 4.94281C27.1929 4.69276 27.3333 4.35362 27.3333 4V1.33333C27.3333 0.979711 27.1929 0.640572 26.9428 0.390523C26.6928 0.140475 26.3536 0 26 0Z" fill="#2EC5CE"/>
<path d="M26 8H2.00001C1.64638 8 1.30724 8.14047 1.0572 8.39052C0.807147 8.64057 0.666672 8.97971 0.666672 9.33333V22.6667C0.666672 23.0203 0.807147 23.3594 1.0572 23.6095C1.30724 23.8595 1.64638 24 2.00001 24H26C26.3536 24 26.6928 23.8595 26.9428 23.6095C27.1929 23.3594 27.3333 23.0203 27.3333 22.6667V9.33333C27.3333 8.97971 27.1929 8.64057 26.9428 8.39052C26.6928 8.14047 26.3536 8 26 8Z" fill="#8C30F5"/>
</svg>
