<svg width="30" height="30" viewBox="0 0 30 30" fill="none" xmlns="http://www.w3.org/2000/svg">
<path d="M29.6667 7.00004V1.66671C29.6667 1.31309 29.5262 0.973946 29.2761 0.723897C29.0261 0.473849 28.6869 0.333374 28.3333 0.333374H1.66666C1.31304 0.333374 0.9739 0.473849 0.723852 0.723897C0.473803 0.973946 0.333328 1.31309 0.333328 1.66671V7.00004H29.6667Z" fill="#2EC5CE"/>
<path d="M0.333328 9.66675V28.3334C0.333328 28.687 0.473803 29.0262 0.723852 29.2762C0.9739 29.5263 1.31304 29.6667 1.66666 29.6667H8.33333V9.66675H0.333328Z" fill="#D6B1FF"/>
<path d="M11 29.6667H28.3333C28.687 29.6667 29.0261 29.5263 29.2761 29.2762C29.5262 29.0262 29.6667 28.687 29.6667 28.3334V9.66675H11V29.6667Z" fill="#8C30F5"/>
</svg>
