<svg width="30" height="30" viewBox="0 0 30 30" fill="none" xmlns="http://www.w3.org/2000/svg">
<path d="M11 12.3333H1.66666C1.31304 12.3333 0.9739 12.1928 0.723852 11.9428C0.473803 11.6927 0.333328 11.3536 0.333328 11V1.66665C0.333328 1.31302 0.473803 0.973885 0.723852 0.723836C0.9739 0.473788 1.31304 0.333313 1.66666 0.333313H11C11.3536 0.333313 11.6928 0.473788 11.9428 0.723836C12.1929 0.973885 12.3333 1.31302 12.3333 1.66665V11C12.3333 11.3536 12.1929 11.6927 11.9428 11.9428C11.6928 12.1928 11.3536 12.3333 11 12.3333Z" fill="#8C30F5"/>
<path d="M11 29.6666H1.66666C1.31304 29.6666 0.9739 29.5262 0.723852 29.2761C0.473803 29.0261 0.333328 28.6869 0.333328 28.3333V19C0.333328 18.6463 0.473803 18.3072 0.723852 18.0571C0.9739 17.8071 1.31304 17.6666 1.66666 17.6666H11C11.3536 17.6666 11.6928 17.8071 11.9428 18.0571C12.1929 18.3072 12.3333 18.6463 12.3333 19V28.3333C12.3333 28.6869 12.1929 29.0261 11.9428 29.2761C11.6928 29.5262 11.3536 29.6666 11 29.6666Z" fill="#8C30F5"/>
<path d="M16.3333 1.66663H29.6667V4.33329H16.3333V1.66663Z" fill="#2EC5CE"/>
<path d="M29.6667 19H16.3333V21.6667H29.6667V19Z" fill="#2EC5CE"/>
<path d="M29.6667 25.6666H16.3333V28.3333H29.6667V25.6666Z" fill="#D6B1FF"/>
<path d="M29.6667 8.33331H16.3333V11H29.6667V8.33331Z" fill="#D6B1FF"/>
</svg>
