<svg width="32" height="30" viewBox="0 0 32 30" fill="none" xmlns="http://www.w3.org/2000/svg">
<path d="M31.4667 0.599981C31.2 0.333314 30.6667 0.333313 30.2667 0.333313L22.6667 2.59998V29.4L31.0667 27C31.6 26.8666 32 26.3333 32 25.6666V1.66665C32 1.26665 31.8667 0.866647 31.4667 0.599981Z" fill="#D6B1FF"/>
<path d="M20 2.59998L12 0.599976V27.4L20 29.4V2.59998Z" fill="#2EC5CE"/>
<path d="M9.33333 0.599976L0.933334 2.99997C0.400001 3.26664 0 3.79997 0 4.33331V28.3333C0 28.7333 0.133333 29.1333 0.533333 29.4C0.799999 29.5333 1.06667 29.6666 1.33333 29.6666H1.73333L9.33333 27.4V0.599976Z" fill="#8C30F5"/>
</svg>
