<svg width="100" height="26" viewBox="0 0 100 26" fill="none" xmlns="http://www.w3.org/2000/svg">
<path d="M14.7973 12.3006C14.8081 11.4659 15.0298 10.6475 15.4418 9.92158C15.8538 9.19563 16.4428 8.58569 17.1539 8.14851C16.7021 7.50335 16.1062 6.97241 15.4134 6.59786C14.7205 6.22331 13.9499 6.01546 13.1627 5.99083C11.4835 5.81457 9.85552 6.99566 8.99981 6.99566C8.12754 6.99566 6.81004 6.00833 5.39131 6.03752C4.47364 6.06717 3.57929 6.33403 2.79541 6.81208C2.01154 7.29014 1.36486 7.9631 0.918393 8.76539C-1.01561 12.1138 0.426982 17.0349 2.27959 19.7415C3.20649 21.0668 4.28977 22.5473 5.70722 22.4948C7.09428 22.4372 7.61232 21.6103 9.28662 21.6103C10.9454 21.6103 11.4314 22.4948 12.8776 22.4614C14.366 22.4372 15.3038 21.1302 16.1981 19.7923C16.8641 18.8479 17.3766 17.8042 17.7166 16.6997C16.8518 16.334 16.1139 15.7218 15.5948 14.9395C15.0757 14.1572 14.7983 13.2394 14.7973 12.3006Z" fill="white"/>
<path d="M12.0657 4.21083C12.8772 3.23663 13.277 1.98445 13.1802 0.720215C11.9404 0.850435 10.7951 1.44299 9.97262 2.37982C9.57048 2.83749 9.26248 3.36993 9.06624 3.9467C8.86999 4.52347 8.78934 5.13326 8.82891 5.74121C9.44905 5.7476 10.0626 5.61319 10.6232 5.3481C11.1839 5.08301 11.6771 4.69416 12.0657 4.21083Z" fill="white"/>
<path d="M32.3307 19.1397H27.5973L26.4606 22.4961H24.4557L28.9391 10.0781H31.0221L35.5055 22.4961H33.4664L32.3307 19.1397ZM28.0875 17.5908H31.8395L29.9899 12.1436H29.9381L28.0875 17.5908Z" fill="white"/>
<path d="M45.1881 17.9698C45.1881 20.7833 43.6823 22.5909 41.4098 22.5909C40.8341 22.621 40.2616 22.4884 39.7578 22.2083C39.254 21.9281 38.8393 21.5118 38.5612 21.0069H38.5182V25.4913H36.6598V13.4425H38.4586V14.9483H38.4928C38.7838 14.4459 39.2055 14.0317 39.7131 13.7498C40.2207 13.468 40.7953 13.329 41.3756 13.3477C43.6734 13.3477 45.1881 15.1641 45.1881 17.9698ZM43.278 17.9698C43.278 16.1368 42.3307 14.9317 40.8854 14.9317C39.4654 14.9317 38.5104 16.1622 38.5104 17.9698C38.5104 19.794 39.4654 21.0157 40.8854 21.0157C42.3307 21.0157 43.278 19.8194 43.278 17.9698Z" fill="white"/>
<path d="M55.153 17.9698C55.153 20.7833 53.6471 22.5909 51.3746 22.5909C50.799 22.621 50.2265 22.4884 49.7227 22.2083C49.2189 21.9281 48.8042 21.5118 48.526 21.0069H48.483V25.4913H46.6246V13.4425H48.4234V14.9483H48.4576C48.7486 14.4459 49.1703 14.0317 49.6779 13.7498C50.1856 13.468 50.7601 13.329 51.3404 13.3477C53.6383 13.3477 55.153 15.1641 55.153 17.9698ZM53.2428 17.9698C53.2428 16.1368 52.2955 14.9317 50.8502 14.9317C49.4303 14.9317 48.4752 16.1622 48.4752 17.9698C48.4752 19.794 49.4303 21.0157 50.8502 21.0157C52.2955 21.0157 53.2428 19.8194 53.2428 17.9698H53.2428Z" fill="white"/>
<path d="M61.7389 19.0362C61.8766 20.2676 63.0729 21.0762 64.7076 21.0762C66.2741 21.0762 67.401 20.2676 67.401 19.1572C67.401 18.1934 66.7213 17.6162 65.1119 17.2207L63.5026 16.833C61.2223 16.2822 60.1637 15.2158 60.1637 13.4854C60.1637 11.3428 62.0309 9.87109 64.6823 9.87109C67.3063 9.87109 69.1051 11.3428 69.1656 13.4854H67.2896C67.1774 12.2461 66.1529 11.4981 64.6559 11.4981C63.1588 11.4981 62.1344 12.2549 62.1344 13.3565C62.1344 14.2344 62.7887 14.751 64.3893 15.1465L65.7574 15.4824C68.3053 16.0849 69.3639 17.1084 69.3639 18.9248C69.3639 21.248 67.5133 22.7031 64.5699 22.7031C61.816 22.7031 59.9566 21.2822 59.8365 19.0361L61.7389 19.0362Z" fill="white"/>
<path d="M73.3746 11.2998V13.4424H75.0963V14.9141H73.3746V19.9053C73.3746 20.6807 73.7194 21.042 74.4762 21.042C74.6806 21.0384 74.8846 21.0241 75.0875 20.999V22.4619C74.7472 22.5255 74.4014 22.5543 74.0553 22.5478C72.2223 22.5478 71.5074 21.8593 71.5074 20.1035V14.9141H70.191V13.4424H71.5074V11.2998H73.3746Z" fill="white"/>
<path d="M76.0934 17.9697C76.0934 15.1211 77.7712 13.3311 80.3874 13.3311C83.0124 13.3311 84.6823 15.1211 84.6823 17.9697C84.6823 20.8262 83.0212 22.6084 80.3874 22.6084C77.7545 22.6084 76.0934 20.8262 76.0934 17.9697ZM82.7887 17.9697C82.7887 16.0156 81.8932 14.8623 80.3874 14.8623C78.8815 14.8623 77.987 16.0244 77.987 17.9697C77.987 19.9316 78.8815 21.0762 80.3874 21.0762C81.8932 21.0762 82.7887 19.9316 82.7887 17.9697H82.7887Z" fill="white"/>
<path d="M86.2145 13.4424H87.9869V14.9834H88.0299C88.1499 14.5021 88.4318 14.0768 88.8284 13.7789C89.225 13.481 89.712 13.3287 90.2077 13.3476C90.4218 13.3469 90.6354 13.3702 90.8444 13.417V15.1553C90.574 15.0726 90.292 15.0347 90.0094 15.043C89.7394 15.032 89.4703 15.0796 89.2204 15.1825C88.9706 15.2854 88.746 15.4411 88.562 15.639C88.378 15.8369 88.239 16.0723 88.1546 16.3289C88.0702 16.5856 88.0423 16.8575 88.0729 17.126V22.4961H86.2145L86.2145 13.4424Z" fill="white"/>
<path d="M99.4127 19.8369C99.1627 21.4805 97.5621 22.6084 95.5143 22.6084C92.8805 22.6084 91.2457 20.8437 91.2457 18.0127C91.2457 15.1729 92.8893 13.3311 95.4362 13.3311C97.941 13.3311 99.5162 15.0518 99.5162 17.7969V18.4336H93.1217V18.5459C93.0922 18.8791 93.1339 19.2148 93.2441 19.5306C93.3543 19.8464 93.5304 20.1352 93.7607 20.3778C93.9911 20.6203 94.2704 20.8111 94.5802 20.9374C94.8899 21.0637 95.223 21.1226 95.5573 21.1103C95.9964 21.1515 96.4371 21.0498 96.8138 20.8203C97.1906 20.5909 97.4831 20.246 97.6481 19.8369L99.4127 19.8369ZM93.1305 17.1348H97.6569C97.6735 16.8352 97.6281 16.5354 97.5234 16.2541C97.4188 15.9729 97.2571 15.7164 97.0486 15.5006C96.84 15.2849 96.5892 15.1145 96.3117 15.0003C96.0342 14.8861 95.7361 14.8305 95.4362 14.8369C95.1335 14.8351 94.8335 14.8933 94.5535 15.008C94.2734 15.1227 94.0189 15.2918 93.8045 15.5054C93.5902 15.7191 93.4203 15.973 93.3046 16.2527C93.1889 16.5323 93.1297 16.8321 93.1305 17.1348V17.1348Z" fill="white"/>
<path d="M27.8546 0.731014C28.2442 0.703055 28.6352 0.761915 28.9993 0.903348C29.3634 1.04478 29.6916 1.26526 29.9602 1.54889C30.2288 1.83251 30.4311 2.17221 30.5525 2.54348C30.6739 2.91475 30.7114 3.30834 30.6622 3.69585C30.6622 5.6021 29.632 6.69785 27.8546 6.69785H25.6993V0.731014H27.8546ZM26.6261 5.85401H27.7511C28.0295 5.87066 28.3081 5.82501 28.5666 5.72039C28.8252 5.61578 29.0571 5.45483 29.2456 5.24927C29.4341 5.0437 29.5744 4.79869 29.6563 4.53207C29.7381 4.26545 29.7595 3.98394 29.7189 3.70801C29.7566 3.43318 29.733 3.15341 29.6499 2.88875C29.5668 2.62408 29.4262 2.38108 29.2381 2.17715C29.05 1.97322 28.8192 1.81341 28.5621 1.70917C28.305 1.60494 28.0281 1.55885 27.7511 1.57422H26.6261V5.85401Z" fill="white"/>
<path d="M31.7091 4.44441C31.6808 4.14849 31.7147 3.84992 31.8085 3.56785C31.9023 3.28579 32.0541 3.02644 32.254 2.80646C32.454 2.58648 32.6977 2.41071 32.9695 2.29044C33.2414 2.17016 33.5354 2.10803 33.8326 2.10803C34.1299 2.10803 34.4239 2.17016 34.6958 2.29044C34.9676 2.41071 35.2113 2.58648 35.4113 2.80646C35.6112 3.02644 35.763 3.28579 35.8568 3.56785C35.9506 3.84992 35.9845 4.14849 35.9562 4.44441C35.985 4.74063 35.9516 5.03961 35.858 5.32214C35.7644 5.60466 35.6127 5.86448 35.4127 6.0849C35.2127 6.30531 34.9688 6.48144 34.6967 6.60198C34.4246 6.72251 34.1303 6.78478 33.8326 6.78478C33.535 6.78478 33.2407 6.72251 32.9686 6.60198C32.6964 6.48144 32.4525 6.30531 32.2526 6.0849C32.0526 5.86448 31.9009 5.60466 31.8073 5.32214C31.7137 5.03961 31.6803 4.74063 31.7091 4.44441ZM35.0421 4.44441C35.0421 3.46834 34.6036 2.89754 33.8341 2.89754C33.0617 2.89754 32.6271 3.46834 32.6271 4.44442C32.6271 5.42831 33.0617 5.99471 33.8341 5.99471C34.6037 5.9947 35.0421 5.42439 35.0421 4.44441H35.0421Z" fill="white"/>
<path d="M41.6017 6.69775H40.6798L39.7491 3.38134H39.6788L38.7521 6.69775H37.839L36.5978 2.19482H37.4991L38.3058 5.63082H38.3722L39.298 2.19482H40.1505L41.0763 5.63082H41.1466L41.9493 2.19482H42.838L41.6017 6.69775Z" fill="white"/>
<path d="M43.882 2.19487H44.7374V2.9102H44.8038C44.9165 2.65328 45.1065 2.43791 45.3474 2.2941C45.5882 2.15029 45.868 2.08522 46.1476 2.10795C46.3667 2.09148 46.5867 2.12451 46.7913 2.20461C46.9959 2.2847 47.1798 2.40981 47.3295 2.57065C47.4792 2.73149 47.5908 2.92396 47.656 3.13378C47.7212 3.3436 47.7383 3.5654 47.7062 3.78275V6.69775H46.8175V4.00591C46.8175 3.28228 46.5031 2.92241 45.8458 2.92241C45.6971 2.91548 45.5486 2.9408 45.4105 2.99663C45.2725 3.05246 45.1481 3.13748 45.046 3.24587C44.9439 3.35425 44.8664 3.48344 44.8188 3.62457C44.7713 3.7657 44.7549 3.91544 44.7706 4.06352V6.6978H43.882L43.882 2.19487Z" fill="white"/>
<path d="M49.1222 0.437012H50.0109V6.69775H49.1222V0.437012Z" fill="white"/>
<path d="M51.2462 4.44437C51.2179 4.14843 51.2518 3.84985 51.3456 3.56777C51.4395 3.28569 51.5913 3.02634 51.7913 2.80635C51.9912 2.58636 52.2349 2.4106 52.5068 2.29032C52.7787 2.17004 53.0727 2.10791 53.37 2.10791C53.6673 2.10791 53.9613 2.17004 54.2331 2.29032C54.505 2.4106 54.7487 2.58636 54.9487 2.80635C55.1487 3.02634 55.3004 3.28569 55.3943 3.56777C55.4882 3.84985 55.522 4.14843 55.4938 4.44437C55.5226 4.74061 55.4891 5.03959 55.3955 5.32211C55.3018 5.60464 55.1501 5.86445 54.9501 6.08486C54.7501 6.30527 54.5062 6.48139 54.2341 6.60192C53.9619 6.72245 53.6676 6.78472 53.37 6.78472C53.0723 6.78472 52.778 6.72245 52.5059 6.60192C52.2337 6.48139 51.9898 6.30527 51.7898 6.08486C51.5898 5.86445 51.4381 5.60464 51.3445 5.32211C51.2509 5.03959 51.2174 4.74061 51.2462 4.44437ZM54.5792 4.44437C54.5792 3.4683 54.1407 2.8975 53.3712 2.8975C52.5987 2.8975 52.1642 3.4683 52.1642 4.44438C52.1642 5.42827 52.5988 5.99467 53.3712 5.99467C54.1407 5.99466 54.5792 5.42435 54.5792 4.44437H54.5792Z" fill="white"/>
<path d="M56.4293 5.42431C56.4293 4.61376 57.0328 4.14648 58.1041 4.08007L59.3239 4.00976V3.62109C59.3239 3.1455 59.0094 2.87695 58.402 2.87695C57.9059 2.87695 57.5621 3.05908 57.4635 3.37744H56.6031C56.694 2.604 57.4215 2.10791 58.443 2.10791C59.5719 2.10791 60.2086 2.66991 60.2086 3.62109V6.69775H59.3531V6.06494H59.2828C59.1401 6.29193 58.9397 6.47698 58.7021 6.60119C58.4645 6.7254 58.1981 6.78432 57.9303 6.77194C57.7413 6.7916 57.5502 6.77144 57.3694 6.71274C57.1887 6.65404 57.0222 6.55811 56.8808 6.43114C56.7394 6.30417 56.6262 6.14898 56.5484 5.97556C56.4706 5.80215 56.4301 5.61436 56.4293 5.42431ZM59.3239 5.03954V4.66308L58.2242 4.73339C57.6041 4.77489 57.3229 4.98583 57.3229 5.3828C57.3229 5.78807 57.6744 6.02391 58.1579 6.02391C58.2995 6.03825 58.4426 6.02395 58.5786 5.98186C58.7146 5.93977 58.8408 5.87075 58.9495 5.77891C59.0583 5.68706 59.1475 5.57428 59.2118 5.44726C59.2761 5.32024 59.3142 5.18158 59.3239 5.03954Z" fill="white"/>
<path d="M61.3766 4.44435C61.3766 3.0215 62.108 2.12013 63.2457 2.12013C63.5271 2.10716 63.8064 2.17457 64.051 2.31446C64.2955 2.45436 64.4951 2.66096 64.6266 2.91013H64.693V0.437012H65.5817V6.69775H64.7301V5.98632H64.6598C64.5182 6.23381 64.3116 6.43785 64.0623 6.57633C63.8131 6.71481 63.5307 6.78246 63.2457 6.77196C62.1002 6.77201 61.3766 5.87062 61.3766 4.44435ZM62.2946 4.44435C62.2946 5.39943 62.7448 5.97414 63.4977 5.97414C64.2467 5.97414 64.7096 5.39114 64.7096 4.44826C64.7096 3.50978 64.2419 2.91847 63.4977 2.91847C62.7496 2.91847 62.2946 3.49708 62.2946 4.44435H62.2946Z" fill="white"/>
<path d="M69.2584 4.44441C69.2301 4.14849 69.264 3.84992 69.3578 3.56785C69.4516 3.28579 69.6034 3.02644 69.8034 2.80646C70.0033 2.58648 70.247 2.41071 70.5188 2.29044C70.7907 2.17016 71.0847 2.10803 71.382 2.10803C71.6792 2.10803 71.9732 2.17016 72.2451 2.29044C72.5169 2.41071 72.7606 2.58648 72.9606 2.80646C73.1605 3.02644 73.3123 3.28579 73.4061 3.56785C73.5 3.84992 73.5338 4.14849 73.5055 4.44441C73.5343 4.74063 73.5009 5.03961 73.4073 5.32214C73.3137 5.60466 73.162 5.86448 72.962 6.0849C72.7621 6.30531 72.5182 6.48144 72.246 6.60198C71.9739 6.72251 71.6796 6.78478 71.382 6.78478C71.0843 6.78478 70.79 6.72251 70.5179 6.60198C70.2458 6.48144 70.0019 6.30531 69.8019 6.0849C69.6019 5.86448 69.4502 5.60466 69.3566 5.32214C69.263 5.03961 69.2296 4.74063 69.2584 4.44441ZM72.5914 4.44441C72.5914 3.46834 72.1529 2.89754 71.3834 2.89754C70.611 2.89754 70.1764 3.46834 70.1764 4.44442C70.1764 5.42831 70.611 5.99471 71.3834 5.99471C72.153 5.9947 72.5914 5.42439 72.5914 4.44441Z" fill="white"/>
<path d="M74.6979 2.19487H75.5533V2.9102H75.6198C75.7324 2.65328 75.9224 2.43791 76.1633 2.2941C76.4042 2.15029 76.6839 2.08522 76.9635 2.10795C77.1826 2.09148 77.4026 2.12451 77.6072 2.20461C77.8118 2.2847 77.9958 2.40981 78.1454 2.57065C78.2951 2.73149 78.4067 2.92396 78.4719 3.13378C78.5371 3.3436 78.5543 3.5654 78.5221 3.78275V6.69775H77.6334V4.00591C77.6334 3.28228 77.319 2.92241 76.6618 2.92241C76.513 2.91548 76.3645 2.9408 76.2264 2.99663C76.0884 3.05246 75.964 3.13748 75.8619 3.24587C75.7598 3.35425 75.6823 3.48344 75.6348 3.62457C75.5872 3.7657 75.5708 3.91544 75.5865 4.06352V6.6978H74.6979V2.19487Z" fill="white"/>
<path d="M83.5436 1.07373V2.21533H84.5192V2.96387H83.5436V5.2793C83.5436 5.75098 83.7379 5.95752 84.1803 5.95752C84.2936 5.95716 84.4067 5.95031 84.5192 5.93701V6.67724C84.3596 6.70579 84.1979 6.72098 84.0358 6.72265C83.0475 6.72265 82.6539 6.37499 82.6539 5.50683V2.96383H81.9391V2.21529H82.6539V1.07373H83.5436Z" fill="white"/>
<path d="M85.733 0.437012H86.6139V2.91846H86.6842C86.8023 2.65914 86.9976 2.44255 87.2432 2.2982C87.4889 2.15386 87.7732 2.08877 88.0572 2.11182C88.2752 2.09996 88.493 2.13635 88.6953 2.21839C88.8976 2.30043 89.0793 2.42611 89.2274 2.58644C89.3755 2.74678 89.4864 2.93783 89.5522 3.14597C89.618 3.3541 89.637 3.57419 89.608 3.79053V6.69776H88.7184V4.00976C88.7184 3.29052 88.3834 2.92626 87.7555 2.92626C87.6028 2.91374 87.4492 2.93473 87.3054 2.98779C87.1616 3.04084 87.0312 3.12467 86.9232 3.23341C86.8152 3.34214 86.7322 3.47316 86.6802 3.6173C86.6281 3.76144 86.6082 3.91521 86.6217 4.06786V6.69774H85.7331L85.733 0.437012Z" fill="white"/>
<path d="M94.7897 5.48188C94.6689 5.89342 94.4073 6.24941 94.0506 6.48756C93.6939 6.72571 93.2649 6.83086 92.8385 6.78461C92.5418 6.79244 92.247 6.73562 91.9745 6.6181C91.702 6.50057 91.4583 6.32515 91.2604 6.10401C91.0625 5.88287 90.9151 5.62131 90.8284 5.33749C90.7417 5.05367 90.7178 4.75438 90.7584 4.4604C90.7189 4.16552 90.7432 3.86559 90.8297 3.58091C90.9162 3.29624 91.0628 3.03347 91.2597 2.8104C91.4566 2.58733 91.6991 2.40916 91.9708 2.28795C92.2425 2.16674 92.5371 2.10533 92.8346 2.10786C94.0875 2.10786 94.8434 2.96386 94.8434 4.37786V4.68795H91.6637V4.73775C91.6498 4.903 91.6705 5.06933 91.7246 5.22608C91.7788 5.38283 91.8651 5.52654 91.978 5.64799C92.0909 5.76945 92.2279 5.86597 92.3803 5.93137C92.5327 5.99677 92.6971 6.02959 92.8629 6.02775C93.0755 6.05327 93.2908 6.015 93.4816 5.91779C93.6723 5.82058 93.8299 5.66884 93.9342 5.48185L94.7897 5.48188ZM91.6636 4.03071H93.9381C93.9493 3.87959 93.9287 3.72779 93.8778 3.58507C93.8268 3.44235 93.7466 3.31187 93.6422 3.20201C93.5378 3.09215 93.4116 3.00535 93.2716 2.94717C93.1317 2.889 92.9812 2.86074 92.8297 2.86421C92.676 2.86228 92.5234 2.89114 92.3811 2.94908C92.2387 3.00703 92.1094 3.09289 92.0007 3.2016C91.892 3.31032 91.8062 3.43968 91.7483 3.58208C91.6905 3.72447 91.6617 3.87702 91.6637 4.03071H91.6636Z" fill="white"/>
</svg>
