<svg width="117" height="29" viewBox="0 0 117 29" fill="none" xmlns="http://www.w3.org/2000/svg">
<path d="M38.4184 4.24334C38.4366 4.61028 38.3799 4.97709 38.2518 5.32142C38.1237 5.66576 37.9268 5.98041 37.6732 6.24624C37.389 6.541 37.0457 6.77244 36.6659 6.92541C36.2861 7.07838 35.8783 7.14944 35.4691 7.13394C35.0573 7.13763 34.649 7.05896 34.268 6.90257C33.8871 6.74618 33.5412 6.51521 33.2508 6.22325C32.9604 5.93129 32.7313 5.58422 32.5769 5.20245C32.4226 4.82067 32.3461 4.41189 32.352 4.00014C32.3462 3.58837 32.4227 3.17959 32.577 2.79781C32.7314 2.41603 32.9605 2.06895 33.2509 1.77695C33.5413 1.48496 33.8871 1.25395 34.268 1.09748C34.649 0.941022 35.0573 0.862264 35.4691 0.865839C35.8925 0.86456 36.3116 0.950158 36.7006 1.11734C37.0619 1.26378 37.3834 1.49348 37.6391 1.78774L37.1117 2.31554C36.9107 2.07899 36.6581 1.89178 36.3733 1.76834C36.0885 1.64491 35.7791 1.58856 35.4691 1.60364C35.157 1.60202 34.8478 1.66341 34.56 1.78412C34.2722 1.90483 34.0118 2.08239 33.7942 2.30615C33.5767 2.52991 33.4065 2.79527 33.2939 3.08635C33.1814 3.37743 33.1287 3.68823 33.1391 4.00014C33.1317 4.46734 33.2631 4.92622 33.5168 5.3186C33.7705 5.71099 34.135 6.01919 34.5641 6.20414C34.9932 6.38909 35.4676 6.44245 35.927 6.35746C36.3865 6.27247 36.8104 6.05295 37.1449 5.72674C37.4528 5.39498 37.6313 4.96365 37.6478 4.51134H35.4691V3.79064H38.3764C38.4039 3.93998 38.4179 4.09149 38.4184 4.24334Z" fill="white" stroke="white" stroke-width="0.2" stroke-miterlimit="10"/>
<path d="M43.0277 1.73742H40.2953V3.63972H42.7592V4.36052H40.2953V6.26282H43.0277V7.00012H39.5248V1.00012H43.0277V1.73742Z" fill="white" stroke="white" stroke-width="0.2" stroke-miterlimit="10"/>
<path d="M46.2787 7.00012H45.5072V1.73742H43.8314V1.00012H47.9545V1.73742H46.2787V7.00012Z" fill="white" stroke="white" stroke-width="0.2" stroke-miterlimit="10"/>
<path d="M50.9379 7.00012V1.00012H51.7084V7.00012H50.9379Z" fill="white" stroke="white" stroke-width="0.2" stroke-miterlimit="10"/>
<path d="M55.1283 7.00012H54.3568V1.73742H52.6811V1.00012H56.8041V1.73742H55.1283V7.00012Z" fill="white" stroke="white" stroke-width="0.2" stroke-miterlimit="10"/>
<path d="M64.6093 6.22474C64.0253 6.80699 63.2343 7.13395 62.4096 7.13395C61.5849 7.13395 60.7939 6.80699 60.2099 6.22474C59.921 5.93212 59.6939 5.58438 59.542 5.20222C59.3902 4.82005 59.3168 4.41126 59.3261 4.00014C59.3168 3.58903 59.3902 3.18024 59.542 2.79807C59.6939 2.41591 59.921 2.06817 60.2099 1.77554C60.4986 1.48681 60.8413 1.25784 61.2186 1.10174C61.5958 0.945646 62.0002 0.865484 62.4085 0.865846C62.8167 0.866208 63.2209 0.947088 63.5979 1.10386C63.9749 1.26062 64.3173 1.4902 64.6054 1.77944C64.8945 2.0713 65.1221 2.41826 65.2746 2.79973C65.4271 3.1812 65.5014 3.58941 65.4931 4.00014C65.5022 4.41123 65.4286 4.81995 65.2768 5.20208C65.125 5.58421 64.898 5.93197 64.6093 6.22474ZM60.7792 5.72234C61.2117 6.15414 61.7979 6.39666 62.4091 6.39666C63.0203 6.39666 63.6065 6.15414 64.039 5.72234C64.2608 5.49526 64.4343 5.22557 64.5489 4.92957C64.6635 4.63356 64.717 4.31738 64.706 4.00014C64.717 3.6829 64.6635 3.36673 64.5489 3.07072C64.4343 2.77472 64.2608 2.50503 64.039 2.27794C63.6065 1.84615 63.0203 1.60363 62.4091 1.60363C61.7979 1.60363 61.2117 1.84615 60.7792 2.27794C60.5577 2.50521 60.3845 2.77495 60.2701 3.07093C60.1556 3.36691 60.1022 3.68299 60.1132 4.00014C60.1022 4.31729 60.1556 4.63338 60.2701 4.92936C60.3845 5.22534 60.5577 5.49508 60.7792 5.72234Z" fill="white" stroke="white" stroke-width="0.2" stroke-miterlimit="10"/>
<path d="M66.5751 7.00012V1.00012H67.5136L70.4296 5.66762H70.4628L70.4296 4.51132V1.00012H71.2011V7.00012H70.3964L67.3456 2.10652H67.3124L67.3456 3.26282V7.00012H66.5751Z" fill="white" stroke="white" stroke-width="0.2" stroke-miterlimit="10"/>
<path d="M59.1358 15.7517C58.2953 15.7549 57.4746 16.007 56.7773 16.4763C56.08 16.9456 55.5373 17.611 55.2179 18.3884C54.8984 19.1659 54.8165 20.0205 54.9825 20.8445C55.1484 21.6685 55.5547 22.4248 56.1502 23.018C56.7457 23.6112 57.5035 24.0147 58.3281 24.1775C59.1527 24.3403 60.0071 24.2551 60.7833 23.9327C61.5595 23.6103 62.2228 23.0652 62.6895 22.3661C63.1561 21.667 63.4051 20.8453 63.4051 20.0048C63.4134 19.4426 63.3085 18.8845 63.0966 18.3637C62.8848 17.8429 62.5704 17.37 62.1721 16.9732C61.7737 16.5764 61.2997 16.2638 60.7781 16.0539C60.2564 15.8441 59.698 15.7413 59.1358 15.7517ZM59.1358 22.5825C58.6182 22.6194 58.1014 22.4996 57.6528 22.2387C57.2043 21.9778 56.8446 21.5879 56.6207 21.1198C56.3968 20.6516 56.3191 20.1269 56.3976 19.6139C56.4761 19.101 56.7072 18.6235 57.0608 18.2438C57.4145 17.864 57.8743 17.5995 58.3804 17.4847C58.8865 17.3699 59.4154 17.4101 59.8983 17.6001C60.3812 17.7902 60.7957 18.1212 61.0878 18.5501C61.3799 18.979 61.5362 19.4859 61.5362 20.0048C61.5519 20.3326 61.5019 20.6603 61.389 20.9685C61.2762 21.2767 61.1028 21.5593 60.8792 21.7994C60.6555 22.0396 60.386 22.2327 60.0866 22.3671C59.7872 22.5016 59.4639 22.5749 59.1358 22.5825ZM49.8224 15.7517C48.9819 15.7549 48.1612 16.007 47.4638 16.4763C46.7665 16.9455 46.2239 17.6109 45.9044 18.3884C45.585 19.1658 45.503 20.0205 45.6689 20.8444C45.8349 21.6684 46.2412 22.4248 46.8367 23.018C47.4321 23.6112 48.19 24.0147 49.0146 24.1775C49.8392 24.3403 50.6936 24.2551 51.4698 23.9327C52.246 23.6103 52.9093 23.0652 53.376 22.3661C53.8426 21.667 54.0916 20.8453 54.0916 20.0048C54.0999 19.4426 53.995 18.8845 53.7831 18.3637C53.5713 17.8429 53.2569 17.3701 52.8586 16.9733C52.4603 16.5765 51.9862 16.2638 51.4646 16.054C50.943 15.8441 50.3845 15.7413 49.8224 15.7517ZM49.8224 22.5825C49.3048 22.6194 48.788 22.4996 48.3394 22.2387C47.8909 21.9778 47.5312 21.5879 47.3073 21.1198C47.0834 20.6516 47.0057 20.1269 47.0842 19.6139C47.1627 19.101 47.3938 18.6235 47.7474 18.2438C48.1011 17.864 48.5609 17.5995 49.067 17.4847C49.573 17.3699 50.102 17.4101 50.5849 17.6001C51.0678 17.7902 51.4823 18.1212 51.7744 18.5501C52.0665 18.979 52.2228 19.4859 52.2228 20.0048C52.2385 20.3326 52.1885 20.6603 52.0757 20.9685C51.9628 21.2767 51.7895 21.5593 51.5658 21.7995C51.3421 22.0397 51.0726 22.2327 50.7732 22.3672C50.4738 22.5016 50.1505 22.5749 49.8224 22.5825ZM38.7436 17.0567V18.861H43.0613C42.999 19.7073 42.6527 20.5078 42.0785 21.1326C41.6458 21.5736 41.1255 21.9191 40.5511 22.1466C39.9767 22.3741 39.3609 22.4787 38.7436 22.4536C37.4816 22.4365 36.277 21.9232 35.3906 21.0247C34.5042 20.1262 34.0073 18.9148 34.0073 17.6527C34.0073 16.3906 34.5042 15.1792 35.3906 14.2807C36.277 13.3822 37.4816 12.8689 38.7436 12.8518C39.9558 12.836 41.1253 13.2991 41.998 14.1406L43.2707 12.8679C42.6753 12.2784 41.9681 11.8137 41.1907 11.5011C40.4134 11.1885 39.5814 11.0343 38.7436 11.0474C37.8681 11.0347 36.9988 11.1961 36.1862 11.5223C35.3737 11.8485 34.6341 12.3331 34.0104 12.9477C33.3868 13.5623 32.8916 14.2948 32.5535 15.1025C32.2155 15.9102 32.0414 16.7771 32.0414 17.6527C32.0414 18.5283 32.2155 19.3952 32.5535 20.2029C32.8916 21.0106 33.3868 21.7431 34.0104 22.3577C34.6341 22.9724 35.3737 23.4569 36.1862 23.7831C36.9988 24.1093 37.8681 24.2708 38.7436 24.258C39.5991 24.2935 40.4523 24.1466 41.2467 23.8272C42.0411 23.5078 42.7584 23.0231 43.3512 22.4053C44.4036 21.2566 44.9646 19.7415 44.914 18.1844C44.9181 17.8063 44.8857 17.4286 44.8172 17.0567H38.7436ZM84.0519 18.4582C83.7963 17.6878 83.3097 17.0148 82.6583 16.5306C82.0069 16.0464 81.2223 15.7744 80.4109 15.7517C79.8644 15.7551 79.3243 15.8693 78.8232 16.0873C78.3222 16.3053 77.8705 16.6227 77.4955 17.0203C77.1206 17.4178 76.8301 17.8873 76.6417 18.4002C76.4534 18.9132 76.371 19.4591 76.3995 20.0048C76.3872 20.564 76.4877 21.1199 76.6951 21.6394C76.9024 22.1588 77.2123 22.6312 77.6063 23.0282C78.0003 23.4252 78.4703 23.7387 78.9881 23.95C79.506 24.1613 80.0611 24.2661 80.6204 24.258C81.3211 24.2619 82.0117 24.0917 82.6303 23.7627C83.2489 23.4337 83.7761 22.9562 84.1646 22.3731L82.7147 21.4065C82.4975 21.7672 82.1902 22.0653 81.8231 22.2715C81.4559 22.4776 81.0415 22.5848 80.6204 22.5825C80.1871 22.5991 79.7588 22.4851 79.3911 22.2553C79.0234 22.0254 78.7332 21.6904 78.5582 21.2937L84.2453 18.9416L84.0519 18.4582ZM78.2522 19.876C78.2322 19.5664 78.2741 19.256 78.3755 18.9628C78.4769 18.6697 78.6357 18.3997 78.8428 18.1687C79.0498 17.9376 79.3008 17.7502 79.5811 17.6174C79.8614 17.4845 80.1654 17.4089 80.4753 17.395C80.798 17.3738 81.1198 17.448 81.4006 17.6084C81.6813 17.7689 81.9087 18.0084 82.0542 18.2972L78.2522 19.876ZM73.6284 24.0002H75.4972V11.4986H73.6284V24.0002ZM70.5674 16.7022H70.503C70.2189 16.3935 69.8721 16.149 69.486 15.9851C69.0998 15.8212 68.683 15.7416 68.2636 15.7517C67.1669 15.7984 66.1306 16.2669 65.3711 17.0594C64.6116 17.8519 64.1876 18.9072 64.1876 20.0049C64.1876 21.1025 64.6116 22.1578 65.3711 22.9503C66.1306 23.7428 67.1669 24.2113 68.2636 24.258C68.6847 24.2692 69.1031 24.1885 69.4899 24.0216C69.8766 23.8547 70.2223 23.6055 70.503 23.2914H70.5674V23.9036C70.5674 25.5308 69.6975 26.4007 68.2958 26.4007C67.8287 26.3895 67.3754 26.2395 66.9939 25.9698C66.6123 25.7001 66.3196 25.3229 66.1532 24.8863L64.526 25.563C64.8327 26.3097 65.3553 26.9478 66.027 27.3955C66.6986 27.8433 67.4886 28.0803 68.2958 28.0762C70.4869 28.0762 72.3396 26.7874 72.3396 23.6458V16.0094H70.5674V16.7022ZM68.4248 22.5825C67.7789 22.5277 67.177 22.2324 66.7384 21.7551C66.2999 21.2777 66.0565 20.6531 66.0565 20.0049C66.0565 19.3566 66.2999 18.732 66.7384 18.2546C67.177 17.7773 67.7789 17.482 68.4248 17.4272C68.7462 17.4429 69.0611 17.5231 69.3508 17.6631C69.6404 17.8031 69.899 18 70.111 18.242C70.3229 18.4841 70.484 18.7663 70.5846 19.0719C70.6851 19.3776 70.7231 19.7003 70.6963 20.0209C70.7214 20.3395 70.682 20.66 70.5805 20.963C70.4789 21.2661 70.3173 21.5455 70.1052 21.7847C69.8931 22.0238 69.635 22.2177 69.3463 22.3548C69.0576 22.4919 68.7442 22.5693 68.4248 22.5825ZM92.8058 11.4988H88.3346V24.0002H90.2003V19.2638H92.8058C93.3336 19.2927 93.8617 19.2138 94.3579 19.0317C94.8541 18.8497 95.308 18.5684 95.6918 18.205C96.0756 17.8417 96.3814 17.4038 96.5903 16.9184C96.7992 16.4329 96.907 15.9099 96.907 15.3813C96.907 14.8528 96.7992 14.3298 96.5903 13.8443C96.3814 13.3588 96.0756 12.921 95.6918 12.5576C95.308 12.1942 94.8541 11.9129 94.3579 11.7309C93.8617 11.5488 93.3336 11.4699 92.8058 11.4988ZM92.854 17.524H90.2003V13.2387H92.854C93.1391 13.2328 93.4225 13.2839 93.6877 13.3889C93.9528 13.4939 94.1943 13.6508 94.398 13.8503C94.6018 14.0499 94.7636 14.2881 94.8741 14.551C94.9846 14.8139 95.0415 15.0962 95.0415 15.3814C95.0415 15.6665 94.9846 15.9488 94.8741 16.2117C94.7636 16.4746 94.6018 16.7128 94.398 16.9124C94.1943 17.1119 93.9528 17.2688 93.6877 17.3738C93.4225 17.4789 93.1391 17.5299 92.854 17.524ZM104.386 15.7287C103.705 15.6889 103.027 15.8489 102.435 16.1889C101.844 16.5288 101.365 17.0341 101.056 17.6426L102.713 18.3342C102.877 18.0322 103.126 17.7846 103.429 17.6218C103.732 17.4589 104.075 17.3879 104.418 17.4174C104.891 17.3712 105.363 17.5145 105.731 17.816C106.099 18.1175 106.332 18.5525 106.38 19.0257V19.1544C105.781 18.8361 105.112 18.6704 104.434 18.6719C102.649 18.6719 100.831 19.653 100.831 21.4865C100.849 21.8729 100.943 22.2519 101.11 22.601C101.277 22.9501 101.512 23.2621 101.801 23.5186C102.091 23.7751 102.429 23.9709 102.795 24.0942C103.162 24.2176 103.55 24.266 103.935 24.2367C104.405 24.2644 104.874 24.1656 105.292 23.9506C105.711 23.7356 106.064 23.4123 106.316 23.0144H106.38V23.9794H108.181V19.1866C108.181 16.9671 106.525 15.7287 104.386 15.7287ZM104.161 22.5801C103.549 22.5801 102.697 22.2746 102.697 21.5186C102.697 20.5537 103.758 20.1837 104.675 20.1837C105.271 20.1678 105.859 20.3123 106.38 20.6019C106.311 21.1441 106.049 21.6432 105.641 22.0069C105.233 22.3705 104.707 22.5742 104.161 22.5801ZM114.743 16.0021L112.604 21.4221H112.54L110.32 16.0021H108.31L111.639 23.5773L109.741 27.7911H111.687L116.818 16.0021H114.743ZM97.9363 24.0002H99.8019V11.4988H97.9363V24.0002Z" fill="white"/>
<path d="M1.43531 1.53805C1.10739 1.93013 0.941819 2.43275 0.972507 2.94295V25.0591C0.941729 25.5693 1.10731 26.0719 1.43531 26.464L1.50931 26.5361L13.8983 14.1472V13.8549L1.50931 1.46545L1.43531 1.53805Z" fill="url(#paint0_linear)"/>
<path d="M18.0277 18.2786L13.8983 14.1472V13.8549L18.0287 9.72449L18.1218 9.77759L23.0146 12.5577C24.4122 13.3517 24.4122 14.6509 23.0146 15.4454L18.1218 18.2255L18.0277 18.2786Z" fill="url(#paint1_linear)"/>
<path d="M18.1218 18.225L13.8983 14.0011L1.4353 26.464C1.72007 26.7152 2.08373 26.8588 2.46326 26.87C2.8428 26.8812 3.2143 26.7593 3.5134 26.5254L18.1218 18.225Z" fill="url(#paint2_linear)"/>
<path d="M18.1218 9.77706L3.5134 1.47666C3.2143 1.24275 2.8428 1.12084 2.46326 1.13206C2.08373 1.14327 1.72007 1.2869 1.4353 1.53806L13.8983 14.0011L18.1218 9.77706Z" fill="url(#paint3_linear)"/>
<path opacity="0.2" d="M18.0287 18.132L3.5134 26.3793C3.22582 26.5982 2.87482 26.7176 2.51339 26.7196C2.15196 26.7215 1.79971 26.6058 1.5098 26.39L1.4353 26.4645L1.5093 26.5366L1.5098 26.5361C1.79966 26.752 2.15193 26.8678 2.51339 26.8659C2.87485 26.8639 3.22587 26.7444 3.5134 26.5254L18.1218 18.225L18.0287 18.132Z" fill="black"/>
<path opacity="0.12" d="M1.43531 26.3184C1.10743 25.9263 0.941862 25.4237 0.972514 24.9135V25.0596C0.941843 25.5698 1.10742 26.0724 1.43531 26.4645L1.50981 26.39L1.43531 26.3184Z" fill="black"/>
<path opacity="0.12" d="M23.0146 15.2988L18.0287 18.132L18.1218 18.225L23.0146 15.4449C23.3024 15.32 23.5515 15.1202 23.7358 14.8663C23.9202 14.6125 24.0331 14.3138 24.0629 14.0015C24.001 14.2843 23.8741 14.5488 23.6921 14.774C23.5101 14.9992 23.2781 15.1789 23.0146 15.2988Z" fill="black"/>
<path opacity="0.25" d="M3.5134 1.62334L23.0146 12.7033C23.2783 12.8232 23.5103 13.0029 23.6923 13.2282C23.8743 13.4535 24.0012 13.7182 24.0629 14.0011C24.0334 13.6887 23.9205 13.3899 23.7361 13.1359C23.5517 12.8819 23.3026 12.6821 23.0146 12.5572L3.5134 1.47724C2.1158 0.683143 0.972504 1.34274 0.972504 2.94354V3.08964C0.972504 1.48894 2.1158 0.829343 3.5134 1.62334Z" fill="white"/>
<defs>
<linearGradient id="paint0_linear" x1="12.7996" y1="2.70976" x2="-3.98276" y2="19.4922" gradientUnits="userSpaceOnUse">
<stop stop-color="#00A0FF"/>
<stop offset="0.00657" stop-color="#00A1FF"/>
<stop offset="0.2601" stop-color="#00BEFF"/>
<stop offset="0.5122" stop-color="#00D2FF"/>
<stop offset="0.7604" stop-color="#00DFFF"/>
<stop offset="1" stop-color="#00E3FF"/>
</linearGradient>
<linearGradient id="paint1_linear" x1="24.8343" y1="14.0015" x2="0.637397" y2="14.0015" gradientUnits="userSpaceOnUse">
<stop stop-color="#FFE000"/>
<stop offset="0.4087" stop-color="#FFBD00"/>
<stop offset="0.7754" stop-color="#FFA500"/>
<stop offset="1" stop-color="#FF9C00"/>
</linearGradient>
<linearGradient id="paint2_linear" x1="15.8269" y1="16.2962" x2="-6.93143" y2="39.0545" gradientUnits="userSpaceOnUse">
<stop stop-color="#FF3A44"/>
<stop offset="1" stop-color="#C31162"/>
</linearGradient>
<linearGradient id="paint3_linear" x1="-1.70277" y1="-5.82376" x2="8.45975" y2="4.33876" gradientUnits="userSpaceOnUse">
<stop stop-color="#32A071"/>
<stop offset="0.0685" stop-color="#2DA771"/>
<stop offset="0.4762" stop-color="#15CF74"/>
<stop offset="0.8009" stop-color="#06E775"/>
<stop offset="1" stop-color="#00F076"/>
</linearGradient>
</defs>
</svg>
